<svg xmlns="http://www.w3.org/2000/svg" version="1.1" xmlns:xlink="http://www.w3.org/1999/xlink" xmlns:svgjs="http://svgjs.dev/svgjs" width="128" height="128" viewBox="0 0 128 128"><g transform="matrix(0.8046875,0,0,0.8046875,12.221934449021731,11.159526151315788)"><svg viewBox="0 0 92 95" data-background-color="#ffffff" preserveAspectRatio="xMidYMid meet" height="132" width="128" xmlns="http://www.w3.org/2000/svg" xmlns:xlink="http://www.w3.org/1999/xlink"><g id="tight-bounds" transform="matrix(1,0,0,1,0.24836923000000866,-0.24049999999999727)"><svg viewBox="0 0 91.50326153999998 95.481" height="95.481" width="91.50326153999998"><g><svg viewBox="0 0 91.50326153999998 95.481" height="95.481" width="91.50326153999998"><g><svg viewBox="0 0 91.50326153999998 95.481" height="95.481" width="91.50326153999998"><g><svg viewBox="0 0 91.50326153999998 95.481" height="95.481" width="91.50326153999998"><g><svg viewBox="0 0 91.50326153999998 95.481" height="95.481" width="91.50326153999998"><g><svg viewBox="0 0 91.50326153999998 95.481" height="95.481" width="91.50326153999998"><g><svg xmlns="http://www.w3.org/2000/svg" xmlns:xlink="http://www.w3.org/1999/xlink" version="1.1" x="0" y="0" viewBox="0 0 95.83399999999999 100" enable-background="new 0 0 95.833 100" xml:space="preserve" width="91.50326153999998" height="95.481" class="icon-icon-0" data-fill-palette-color="accent" id="icon-0"><path fill="#ff5a5f" d="M45.819 93.75h14.763c-0.479-1.241-0.858-2.637-1.153-4.167h-9.966C48.399 91.061 47.184 92.473 45.819 93.75z" data-fill-palette-color="accent"></path><path fill="#ff5a5f" d="M81.422 72.917c0 1.151 0.933 2.083 2.084 2.083h1.888c0.015-1.363 0.019-2.757 0.021-4.167h-1.908C82.355 70.833 81.422 71.766 81.422 72.917z" data-fill-palette-color="accent"></path><path fill="#ff5a5f" d="M89.965 70.876c-0.071-0.008-0.134-0.043-0.209-0.043h-4.342c0.002-0.691 0.002-1.383 0.002-2.083 0-1.151-0.932-2.083-2.083-2.083H60.417c-1.151 0-2.083 0.932-2.083 2.083 0 16.769 0 31.25 10.416 31.25H75c4.276 0 6.779-2.468 8.267-6.507-0.002 0.005-0.002 0.009-0.004 0.013 5.595-1.233 12.571-7.178 12.571-14.339C95.833 74.284 93.537 71.098 89.965 70.876zM75 95.833h-6.25c-5.948 0-6.235-11.373-6.248-25h18.746C81.236 84.46 80.949 95.833 75 95.833zM84.493 88.69c0.655-3.917 0.849-8.606 0.901-13.69h4.189c1.933 0 2.083 3.19 2.083 4.167C91.667 83.389 87.884 87.064 84.493 88.69z" data-fill-palette-color="accent"></path><path fill="#ff5a5f" d="M52.083 75h-4.462c-0.79-3.035-3.225-5.412-6.313-6.066-1.443-3.63-7.034-4.232-10.435-4.33-0.856-2.429-3.153-4.187-5.874-4.187-2.82 0-5.182 1.888-5.957 4.459-1.949 0.588-3.483 2.088-4.12 4.017C10.876 69.441 7.646 71.865 6.622 75H2.083C0.932 75 0 75.932 0 77.083 0 86.099 9.841 100 22.917 100h8.333c13.076 0 22.917-13.901 22.917-22.917C54.167 75.932 53.235 75 52.083 75zM31.25 95.833h-8.333c-9.241 0-17.147-9.503-18.518-16.666h45.37C48.396 86.33 40.491 95.833 31.25 95.833z" data-fill-palette-color="accent"></path><path fill="#ff5a5f" d="M79.167 33.333c-1.151 0-2.083 0.932-2.083 2.083V37.5H68.75v-4.167c0-6.539-7.169-11.751-16.666-12.423v-8.793c2.419-0.865 4.166-3.156 4.166-5.868C56.25 2.804 53.446 0 50 0s-6.25 2.804-6.25 6.25c0 2.712 1.748 5.003 4.167 5.865v8.795c-8.461 0.598-15.053 4.806-16.396 10.339H25c-1.152 0-2.083 0.932-2.083 2.083 0 0.513 0.206 0.966 0.513 1.329l7.821 9.82v20.142c1.243 0.045 2.712 0.167 4.167 0.468V35.417h29.167v31.25h4.166v-25h8.334v22.917c0 0.717-0.096 1.408-0.229 2.084h4.224c0.098-0.678 0.171-1.369 0.171-2.084V35.417C81.25 34.265 80.318 33.333 79.167 33.333zM31.25 37.812l-1.915-2.395h1.915V37.812zM50 4.167c1.149 0 2.084 0.936 2.084 2.083S51.149 8.333 50 8.333s-2.083-0.936-2.083-2.083S48.85 4.167 50 4.167zM35.917 31.25C37.585 27.704 43.349 25 49.996 25c0.002 0 0.002 0 0.002 0 0.004 0 0.004 0 0.004 0 6.649 0 12.413 2.704 14.081 6.25H35.917z" data-fill-palette-color="accent"></path></svg></g></svg></g></svg></g></svg></g></svg></g></svg></g><defs></defs></svg><rect width="91.50326153999998" height="95.481" fill="none" stroke="none" visibility="hidden"></rect></g></svg></g></svg>