<svg xmlns="http://www.w3.org/2000/svg" version="1.1" xmlns:xlink="http://www.w3.org/1999/xlink" xmlns:svgjs="http://svgjs.dev/svgjs" width="2000" height="373" viewBox="0 0 2000 373"><g transform="matrix(1,0,0,1,-1.2120779716980223,-0.36266178823646555)"><svg viewBox="0 0 396 74" data-background-color="#ffffff" preserveAspectRatio="xMidYMid meet" height="373" width="2000" xmlns="http://www.w3.org/2000/svg" xmlns:xlink="http://www.w3.org/1999/xlink"><g id="tight-bounds" transform="matrix(1,0,0,1,0.23999143839620274,0.0719489874785495)"><svg viewBox="0 0 395.52 73.85610202504289" height="73.85610202504289" width="395.52"><g><svg viewBox="0 0 491.8123181027574 91.83692542215336" height="73.85610202504289" width="395.52"><g transform="matrix(1,0,0,1,96.29231810275733,28.37894295894655)"><svg viewBox="0 0 395.52000000000004 35.07903950426026" height="35.07903950426026" width="395.52000000000004"><g><svg viewBox="0 0 395.52000000000004 35.07903950426026" height="35.07903950426026" width="395.52000000000004"><g><svg viewBox="0 0 395.52000000000004 35.07903950426026" height="35.07903950426026" width="395.52000000000004"><g transform="matrix(1,0,0,1,0,0)"><svg width="395.52000000000004" viewBox="3.8499999046325684 -34 387.2599792480469 34.349998474121094" height="35.07903950426026" data-palette-color="#ff5a5f"><path d="M16.15 0L16.15 0 3.85 0 3.85-33.7 14-33.7Q19.2-33.7 22.33-31.3 25.45-28.9 25.45-24.85L25.45-24.85Q25.45-21.95 23.83-19.83 22.2-17.7 19.65-17.15L19.65-17.15Q22.45-16.7 24.43-14.63 26.4-12.55 26.4-9L26.4-9Q26.4-4.95 23.73-2.48 21.05 0 16.15 0ZM14-30.25L14-30.25 7.9-30.25 7.9-18.75 13.3-18.75Q17.35-18.75 19.3-20.45 21.25-22.15 21.25-24.85L21.25-24.85Q21.25-27.2 19.43-28.73 17.6-30.25 14-30.25ZM14.8-15.3L14.8-15.3 7.9-15.3 7.9-3.45 15.55-3.45Q18.75-3.45 20.48-4.93 22.2-6.4 22.2-9.25 22.2-12.1 20.28-13.7 18.35-15.3 14.8-15.3ZM51.2-3.55L51.2 0 32.4 0 32.4-33.7 50.95-33.7 50.95-30.15 36.45-30.15 36.45-18.6 49.25-18.6 49.25-15.05 36.45-15.05 36.45-3.55 51.2-3.55ZM67.64 0L67.64 0 57.45 0 57.45-33.7 67.44-33.7Q74.89-33.7 79.67-29.08 84.44-24.45 84.44-17.1L84.44-17.1Q84.44-9.8 80.02-4.9 75.59 0 67.64 0ZM67.39-30.1L67.39-30.1 61.55-30.1 61.55-3.55 67.59-3.55Q73.84-3.55 77.05-7.43 80.25-11.3 80.25-17.1L80.25-17.1Q80.25-22.6 76.67-26.35 73.09-30.1 67.39-30.1ZM105.84-14.2L105.84 0 101.79 0 101.79-33.7 106.89-33.7 115.34-19.5 123.89-4.9Q123.69-9.75 123.69-19.45L123.69-19.45 123.69-33.7 127.74-33.7 127.74 0 122.64 0 114.19-14.1Q111.64-18.35 109.49-22.03 107.34-25.7 106.44-27.3L106.44-27.3 105.59-28.85Q105.84-23.65 105.84-14.2L105.84-14.2ZM159.04 0L159.04 0 146.74 0 146.74-33.7 156.89-33.7Q162.09-33.7 165.21-31.3 168.34-28.9 168.34-24.85L168.34-24.85Q168.34-21.95 166.71-19.83 165.09-17.7 162.54-17.15L162.54-17.15Q165.34-16.7 167.31-14.63 169.29-12.55 169.29-9L169.29-9Q169.29-4.95 166.61-2.48 163.94 0 159.04 0ZM156.89-30.25L156.89-30.25 150.79-30.25 150.79-18.75 156.19-18.75Q160.24-18.75 162.19-20.45 164.14-22.15 164.14-24.85L164.14-24.85Q164.14-27.2 162.31-28.73 160.49-30.25 156.89-30.25ZM157.69-15.3L157.69-15.3 150.79-15.3 150.79-3.45 158.44-3.45Q161.64-3.45 163.36-4.93 165.09-6.4 165.09-9.25 165.09-12.1 163.16-13.7 161.24-15.3 157.69-15.3ZM183.98-30.2L183.98-30.2 179.33-30.2 179.33-16.75 184.43-16.75Q187.88-16.75 189.71-18.63 191.53-20.5 191.53-23.45L191.53-23.45Q191.53-30.2 183.98-30.2ZM184.58-13.3L184.18-13.3 179.33-13.3 179.33 0 175.28 0 175.28-33.7 183.73-33.7Q189.58-33.7 192.61-30.95 195.63-28.2 195.63-23.35L195.63-23.35Q195.53-19.85 193.78-17.4 192.03-14.95 188.83-13.95L188.83-13.95 197.68 0 192.83 0 184.58-13.3ZM221.48-3.55L221.48 0 202.68 0 202.68-33.7 221.23-33.7 221.23-30.15 206.73-30.15 206.73-18.6 219.53-18.6 219.53-15.05 206.73-15.05 206.73-3.55 221.48-3.55ZM234.78-14.2L234.78-14.2 234.13-12.3 246.08-12.3 245.43-14.25 240.18-30.45Q239.58-28.3 234.78-14.2ZM232.98-8.85L229.98 0 225.63 0 237.38-33.7 242.98-33.7 254.53 0 250.18 0 247.23-8.85 232.98-8.85ZM269.98-16.65L283.53 0 278.28 0 264.98-16.65 277.83-33.7 282.83-33.7 269.98-16.65ZM264.18-33.7L264.18 0 260.13 0 260.13-33.7 264.18-33.7ZM305.52-18.2L305.52-14.65 292.82-14.65 292.82 0 288.77 0 288.77-33.7 307.27-33.7 307.27-30.15 292.82-30.15 292.82-18.2 305.52-18.2ZM320.27-14.2L320.27-14.2 319.62-12.3 331.57-12.3 330.92-14.25 325.67-30.45Q325.07-28.3 320.27-14.2ZM318.47-8.85L315.47 0 311.12 0 322.87-33.7 328.47-33.7 340.02 0 335.67 0 332.72-8.85 318.47-8.85ZM365.12-8.95L365.12-8.95Q365.12-4.5 362.07-2.08 359.02 0.35 354.22 0.35L354.22 0.35Q348.92 0.35 345.22-1.8L345.22-1.8 345.22-6.15Q348.87-3.4 354.12-3.4L354.12-3.4Q357.27-3.4 359.07-4.8 360.87-6.2 360.87-8.85L360.87-8.85Q360.87-9.95 360.44-10.83 360.02-11.7 359.04-12.43 358.07-13.15 357.19-13.63 356.32-14.1 354.82-14.8L354.82-14.8Q354.52-14.95 353.92-15.2L353.92-15.2Q351.77-16.15 350.64-16.75 349.52-17.35 347.99-18.53 346.47-19.7 345.77-21.25 345.07-22.8 345.07-24.85L345.07-24.85Q345.07-29.15 348.14-31.58 351.22-34 355.87-34L355.87-34Q360.22-34 363.27-32.45L363.27-32.45 363.27-28.2Q360.22-30.2 355.97-30.2L355.97-30.2Q352.92-30.2 351.12-28.78 349.32-27.35 349.32-25.05L349.32-25.05Q349.32-23.85 349.79-22.9 350.27-21.95 351.47-21.13 352.67-20.3 353.52-19.88 354.37-19.45 356.17-18.65L356.17-18.65Q357.87-17.9 358.77-17.48 359.67-17.05 361.09-16.13 362.52-15.2 363.24-14.33 363.97-13.45 364.54-12.03 365.12-10.6 365.12-8.95ZM391.11-33.7L391.11-30.15 382.01-30.15 382.01 0 377.96 0 377.96-30.15 368.86-30.15 368.86-33.7 391.11-33.7Z" opacity="1" transform="matrix(1,0,0,1,0,0)" fill="#ff5a5f" class="undefined-text-0" data-fill-palette-color="primary" id="text-0"></path></svg></g></svg></g></svg></g></svg></g><g><svg viewBox="0 0 88.01099877274959 91.83692542215336" height="91.83692542215336" width="88.01099877274959"><g><svg xmlns="http://www.w3.org/2000/svg" xmlns:xlink="http://www.w3.org/1999/xlink" version="1.1" x="0" y="0" viewBox="0 0 95.83399963378906 100" enable-background="new 0 0 95.833 100" xml:space="preserve" width="88.01099877274959" height="91.83692542215336" class="icon-icon-0" data-fill-palette-color="accent" id="icon-0"><path fill="#ff5a5f" d="M45.819 93.75h14.763c-0.479-1.241-0.858-2.637-1.153-4.167h-9.966C48.399 91.061 47.184 92.473 45.819 93.75z" data-fill-palette-color="accent"></path><path fill="#ff5a5f" d="M81.422 72.917c0 1.151 0.933 2.083 2.084 2.083h1.888c0.015-1.363 0.019-2.757 0.021-4.167h-1.908C82.355 70.833 81.422 71.766 81.422 72.917z" data-fill-palette-color="accent"></path><path fill="#ff5a5f" d="M89.965 70.876c-0.071-0.008-0.134-0.043-0.209-0.043h-4.342c0.002-0.691 0.002-1.383 0.002-2.083 0-1.151-0.932-2.083-2.083-2.083H60.417c-1.151 0-2.083 0.932-2.083 2.083 0 16.769 0 31.25 10.416 31.25H75c4.276 0 6.779-2.468 8.267-6.507-0.002 0.005-0.002 0.009-0.004 0.013 5.595-1.233 12.571-7.178 12.571-14.339C95.833 74.284 93.537 71.098 89.965 70.876zM75 95.833h-6.25c-5.948 0-6.235-11.373-6.248-25h18.746C81.236 84.46 80.949 95.833 75 95.833zM84.493 88.69c0.655-3.917 0.849-8.606 0.901-13.69h4.189c1.933 0 2.083 3.19 2.083 4.167C91.667 83.389 87.884 87.064 84.493 88.69z" data-fill-palette-color="accent"></path><path fill="#ff5a5f" d="M52.083 75h-4.462c-0.79-3.035-3.225-5.412-6.313-6.066-1.443-3.63-7.034-4.232-10.435-4.33-0.856-2.429-3.153-4.187-5.874-4.187-2.82 0-5.182 1.888-5.957 4.459-1.949 0.588-3.483 2.088-4.12 4.017C10.876 69.441 7.646 71.865 6.622 75H2.083C0.932 75 0 75.932 0 77.083 0 86.099 9.841 100 22.917 100h8.333c13.076 0 22.917-13.901 22.917-22.917C54.167 75.932 53.235 75 52.083 75zM31.25 95.833h-8.333c-9.241 0-17.147-9.503-18.518-16.666h45.37C48.396 86.33 40.491 95.833 31.25 95.833z" data-fill-palette-color="accent"></path><path fill="#ff5a5f" d="M79.167 33.333c-1.151 0-2.083 0.932-2.083 2.083V37.5H68.75v-4.167c0-6.539-7.169-11.751-16.666-12.423v-8.793c2.419-0.865 4.166-3.156 4.166-5.868C56.25 2.804 53.446 0 50 0s-6.25 2.804-6.25 6.25c0 2.712 1.748 5.003 4.167 5.865v8.795c-8.461 0.598-15.053 4.806-16.396 10.339H25c-1.152 0-2.083 0.932-2.083 2.083 0 0.513 0.206 0.966 0.513 1.329l7.821 9.82v20.142c1.243 0.045 2.712 0.167 4.167 0.468V35.417h29.167v31.25h4.166v-25h8.334v22.917c0 0.717-0.096 1.408-0.229 2.084h4.224c0.098-0.678 0.171-1.369 0.171-2.084V35.417C81.25 34.265 80.318 33.333 79.167 33.333zM31.25 37.812l-1.915-2.395h1.915V37.812zM50 4.167c1.149 0 2.084 0.936 2.084 2.083S51.149 8.333 50 8.333s-2.083-0.936-2.083-2.083S48.85 4.167 50 4.167zM35.917 31.25C37.585 27.704 43.349 25 49.996 25c0.002 0 0.002 0 0.002 0 0.004 0 0.004 0 0.004 0 6.649 0 12.413 2.704 14.081 6.25H35.917z" data-fill-palette-color="accent"></path></svg></g></svg></g></svg></g><defs></defs></svg><rect width="395.52" height="73.85610202504289" fill="none" stroke="none" visibility="hidden"></rect></g></svg></g></svg>